<svg width="45" height="45" viewBox="0 0 45 45" fill="none" xmlns="http://www.w3.org/2000/svg">
<g clip-path="url(#clip0_173_1572)">
<path d="M22.5 0C10.0731 0 0 10.0731 0 22.5C0 34.9269 10.0731 45 22.5 45C34.9269 45 45 34.9269 45 22.5C45 10.0731 34.9269 0 22.5 0ZM22.5 41.4844C12.0149 41.4844 3.51562 32.9851 3.51562 22.5C3.51562 12.0149 12.0149 3.51562 22.5 3.51562C32.9851 3.51562 41.4844 12.0149 41.4844 22.5C41.4844 32.9851 32.9851 41.4844 22.5 41.4844Z" fill="black"/>
<path d="M22.5 3.51562C17.465 3.51563 12.6363 5.51576 9.07602 9.07602C5.51576 12.6363 3.51563 17.465 3.51562 22.5C3.51563 27.535 5.51576 32.3637 9.07602 35.924C12.6363 39.4842 17.465 41.4844 22.5 41.4844V3.51562Z" fill="black"/>
</g>
<defs>
<clipPath id="clip0_173_1572">
<rect width="45" height="45" fill="white"/>
</clipPath>
</defs>
</svg>
