<svg width="45" height="45" viewBox="0 0 45 45" fill="none" xmlns="http://www.w3.org/2000/svg">
<g clip-path="url(#clip0_173_1576)">
<path d="M22.5 0C10.0731 0 0 10.0731 0 22.5C0 34.9269 10.0731 45 22.5 45C34.9269 45 45 34.9269 45 22.5C45 10.0731 34.9269 0 22.5 0ZM22.5 41.4844C12.0149 41.4844 3.51562 32.9851 3.51562 22.5C3.51562 12.0149 12.0149 3.51562 22.5 3.51562C32.9851 3.51562 41.4844 12.0149 41.4844 22.5C41.4844 32.9851 32.9851 41.4844 22.5 41.4844Z" fill="black"/>
<path d="M26.5334 12.6562L26.7188 17.2732H26.2491C26.1598 16.4602 26.0362 15.8794 25.8783 15.5305C25.6256 14.9702 25.2836 14.5569 24.8592 14.2905C24.4363 14.0241 23.8773 13.8895 23.1852 13.8895H20.8245V28.9298C20.8245 30.1438 20.9358 30.8978 21.1583 31.1957C21.4713 31.6049 21.9534 31.8068 22.6043 31.8068H23.1852V32.3438H16.0784V31.8068H16.6717C17.3803 31.8068 17.8829 31.5555 18.1796 31.0515C18.3608 30.7425 18.4515 30.0353 18.4515 28.9297V13.8894H16.4369C15.6554 13.8894 15.0979 13.9568 14.7684 14.0941C14.3399 14.2781 13.9746 14.6297 13.6697 15.1529C13.3648 15.6761 13.1836 16.3833 13.1258 17.2732H12.6562L12.854 12.6562H26.5334Z" fill="black"/>
<path d="M30.9375 15.4688H32.3438L30.2344 12.6562L28.125 15.4688H29.5312V29.5312H28.125L30.2344 32.3438L32.3438 29.5312H30.9375V15.4688Z" fill="black"/>
</g>
<defs>
<clipPath id="clip0_173_1576">
<rect width="45" height="45" fill="white"/>
</clipPath>
</defs>
</svg>
