<svg width="45" height="45" viewBox="0 0 45 45" fill="none" xmlns="http://www.w3.org/2000/svg">
<g clip-path="url(#clip0_173_1582)">
<path d="M22.5 0C10.0731 0 0 10.0731 0 22.5C0 34.9269 10.0731 45 22.5 45C34.9269 45 45 34.9269 45 22.5C45 10.0731 34.9269 0 22.5 0ZM22.5 41.4844C12.0149 41.4844 3.51562 32.9851 3.51562 22.5C3.51562 12.0149 12.0149 3.51562 22.5 3.51562C32.9851 3.51562 41.4844 12.0149 41.4844 22.5C41.4844 32.9851 32.9851 41.4844 22.5 41.4844Z" fill="black"/>
<path d="M17.1481 21.8507H13.363L12.606 22.788L11.7408 23.8244C11.5726 24.0467 11.4494 24.248 11.3713 24.4282C11.3112 24.5664 11.2812 24.7046 11.2812 24.8428C11.2812 24.987 11.3563 25.1222 11.5065 25.2483C11.6627 25.3685 11.918 25.4376 12.2725 25.4556V25.7891H8.62255L8.71267 25.4556C9.03711 25.4015 9.3255 25.2874 9.57785 25.1131C9.9143 24.8728 10.398 24.3771 11.0288 23.6261L19.6896 13.2891H20.0951L19.6896 23.2927C19.6715 23.8154 19.6625 24.1308 19.6625 24.239C19.6625 24.6475 19.7436 24.9449 19.9059 25.1312C20.0741 25.3174 20.3505 25.4256 20.735 25.4556L20.6449 25.7891H15.3547L15.4538 25.4556C15.9765 25.4075 16.2769 25.3655 16.355 25.3294C16.5233 25.2453 16.6765 25.0711 16.8147 24.8067C16.9528 24.5364 17.037 24.0707 17.067 23.4098L17.1481 21.8507ZM17.1481 21.1117L17.3824 17.1283L13.9848 21.1117H17.1481Z" fill="black"/>
<path d="M32.6912 22.8871H27.7044L26.1938 25.668H23.5331L30.6484 13.0852H33.5238L35.5665 25.668H33.1118L32.6912 22.8871ZM32.3736 20.7928L31.6441 15.7288L28.6057 20.7928H32.3736Z" fill="black"/>
<path d="M9.66797 14.0625C15.8203 5.27344 29.0039 5.27344 35.1562 14.0625" stroke="black" stroke-width="0.527344"/>
<path d="M35.1562 31.6406C29.0039 40.4297 15.8203 40.4297 9.66797 31.6406" stroke="black" stroke-width="0.527344"/>
</g>
<defs>
<clipPath id="clip0_173_1582">
<rect width="45" height="45" fill="white"/>
</clipPath>
</defs>
</svg>
