<svg width="45" height="45" viewBox="0 0 45 45" fill="none" xmlns="http://www.w3.org/2000/svg">
<g clip-path="url(#clip0_173_1591)">
<path d="M22.5 0C10.0731 0 0 10.0731 0 22.5C0 34.9269 10.0731 45 22.5 45C34.9269 45 45 34.9269 45 22.5C45 10.0731 34.9269 0 22.5 0ZM22.5 41.4844C12.0149 41.4844 3.51562 32.9851 3.51562 22.5C3.51562 12.0149 12.0149 3.51562 22.5 3.51562C32.9851 3.51562 41.4844 12.0149 41.4844 22.5C41.4844 32.9851 32.9851 41.4844 22.5 41.4844Z" fill="black"/>
<path d="M12.3047 26.0156C14.2463 26.0156 15.8203 24.4416 15.8203 22.5C15.8203 20.5584 14.2463 18.9844 12.3047 18.9844C10.3631 18.9844 8.78906 20.5584 8.78906 22.5C8.78906 24.4416 10.3631 26.0156 12.3047 26.0156Z" fill="black"/>
<path d="M22.5 26.0156C24.4416 26.0156 26.0156 24.4416 26.0156 22.5C26.0156 20.5584 24.4416 18.9844 22.5 18.9844C20.5584 18.9844 18.9844 20.5584 18.9844 22.5C18.9844 24.4416 20.5584 26.0156 22.5 26.0156Z" fill="black"/>
<path d="M32.6953 26.0156C34.6369 26.0156 36.2109 24.4416 36.2109 22.5C36.2109 20.5584 34.6369 18.9844 32.6953 18.9844C30.7537 18.9844 29.1797 20.5584 29.1797 22.5C29.1797 24.4416 30.7537 26.0156 32.6953 26.0156Z" fill="black"/>
</g>
<defs>
<clipPath id="clip0_173_1591">
<rect width="45" height="45" fill="white"/>
</clipPath>
</defs>
</svg>
