<svg width="45" height="45" viewBox="0 0 45 45" fill="none" xmlns="http://www.w3.org/2000/svg">
<g clip-path="url(#clip0_173_1599)">
<path d="M22.5 0C10.0731 0 0 10.0731 0 22.5C0 34.9269 10.0731 45 22.5 45C34.9269 45 45 34.9269 45 22.5C45 10.0731 34.9269 0 22.5 0ZM22.5 41.4844C12.0149 41.4844 3.51562 32.9851 3.51562 22.5C3.51562 12.0149 12.0149 3.51562 22.5 3.51562C32.9851 3.51562 41.4844 12.0149 41.4844 22.5C41.4844 32.9851 32.9851 41.4844 22.5 41.4844Z" fill="black"/>
<path d="M30.7123 11.25L30.9375 15.2078H30.3745C30.2646 14.5101 30.1163 14.013 29.9296 13.7137C29.6247 13.233 29.2127 12.8787 28.7074 12.6507C28.1993 12.4227 27.5263 12.3074 26.6969 12.3074H23.8651V25.1999C23.8651 26.2381 23.9984 26.885 24.2633 27.1418C24.6396 27.4906 25.2192 27.665 25.9992 27.665H26.6969V28.125H18.1715V27.665H18.8829C19.7315 27.665 20.3345 27.4494 20.6901 27.0168C20.9098 26.7517 21.0169 26.1461 21.0169 25.1999V12.3074H18.5999C17.6606 12.3074 16.9932 12.3651 16.5977 12.4818C16.0841 12.6397 15.6446 12.9418 15.2793 13.3895C14.9127 13.8386 14.6957 14.4442 14.6256 15.2078H14.0625L14.2988 11.25H30.7123Z" fill="black"/>
<path d="M30.9375 31.6406L28.125 29.5312V30.9375H16.875V29.5312L14.0625 31.6406L16.875 33.75V32.3438H28.125V33.75L30.9375 31.6406Z" fill="black"/>
</g>
<defs>
<clipPath id="clip0_173_1599">
<rect width="45" height="45" fill="white"/>
</clipPath>
</defs>
</svg>
